Coordinates
version=1
nRows=27
nColumns=38
inDegrees=no

Units are S.I. units (second, meters, Newtons, ...)
If the header above contains a line with 'inDegrees', this indicates whether rotational values are in degrees (yes) or radians (no).

endheader
time	pelvis_tilt	pelvis_list	pelvis_rotation	pelvis_tx	pelvis_ty	pelvis_tz	hip_flexion_r	hip_adduction_r	hip_rotation_r	knee_angle_r	ankle_angle_r	subtalar_angle_r	mtp_angle_r	hip_flexion_l	hip_adduction_l	hip_rotation_l	knee_angle_l	ankle_angle_l	subtalar_angle_l	mtp_angle_l	lumbar_extension	lumbar_bending	lumbar_rotation	arm_flex_r	arm_add_r	arm_rot_r	elbow_flex_r	pro_sup_r	wrist_flex_r	wrist_dev_r	arm_flex_l	arm_add_l	arm_rot_l	elbow_flex_l	pro_sup_l	wrist_flex_l	wrist_dev_l
2.7	-0.0623636	0.134725	-0.0349665	0.743115	0.982726	-0.361797	-0.398251	-0.16282	-0.285655	-0.33155	0.00645081	0.0999988	-0.0422679	0.929552	0.0169482	-0.269137	-1.40827	0.333925	0.0999999	-0.036774	-0.194507	-0.11926	0.298394	0.128859	-0.479083	0.153008	2.26886	1.41723	0.0656517	0.0997237	-0.796231	-0.631531	-0.303596	2.05166	1.39532	0.0205341	-0.0811922
2.70833	-0.0707365	0.138912	-0.0273953	0.745071	0.9848	-0.362318	-0.417809	-0.167895	-0.303054	-0.352203	-0.06673	0.0999988	-0.0422679	0.927121	0.0288549	-0.27716	-1.2965	0.348412	0.0999999	-0.036774	-0.182249	-0.128589	0.308165	0.124505	-0.485588	0.196739	2.29199	1.4352	0.0656517	0.0997237	-0.800182	-0.649942	-0.319204	2.0719	1.37659	0.0205341	-0.0811922
2.71667	-0.0775959	0.139528	-0.0203587	0.746742	0.986094	-0.362569	-0.429645	-0.167634	-0.305702	-0.392232	-0.122702	0.0999988	-0.0422679	0.917798	0.0377935	-0.284416	-1.1835	0.362902	0.0999999	-0.036774	-0.173196	-0.134602	0.31742	0.116069	-0.491463	0.235743	2.31054	1.45033	0.0656517	0.0997237	-0.799729	-0.667116	-0.333771	2.09054	1.36142	0.0205341	-0.0811922
2.725	-0.0824379	0.136803	-0.0136017	0.748118	0.986951	-0.362582	-0.434497	-0.162269	-0.294559	-0.451036	-0.160384	0.0999988	-0.0422679	0.901925	0.0440623	-0.290903	-1.07145	0.376422	0.0999999	-0.036774	-0.167756	-0.13737	0.325397	0.103668	-0.495963	0.26896	2.3237	1.46153	0.0656517	0.0997237	-0.795154	-0.68264	-0.34753	2.10805	1.3496	0.0205341	-0.0811922
2.73333	-0.0846893	0.131209	-0.00682182	0.749246	0.987378	-0.362427	-0.433498	-0.152364	-0.272394	-0.527187	-0.181176	0.0999988	-0.0422679	0.879955	0.0481467	-0.296502	-0.962879	0.387816	0.0999999	-0.036774	-0.166341	-0.137191	0.331245	0.0875439	-0.498616	0.295681	2.3308	1.46788	0.0656517	0.0997237	-0.78696	-0.696199	-0.360854	2.125	1.34071	0.0205341	-0.0811922
2.74167	-0.0837815	0.123417	0.000283798	0.750167	0.987383	-0.3622	-0.428088	-0.138816	-0.243327	-0.61856	-0.188315	0.0999988	-0.0422679	0.852481	0.0506374	-0.300937	-0.860612	0.395798	0.0999999	-0.036774	-0.169306	-0.134569	0.334143	0.0680657	-0.499237	0.315615	2.3314	1.46873	0.0656517	0.0997237	-0.775797	-0.707641	-0.374205	2.14201	1.33423	0.0205341	-0.0811922
2.75	-0.079269	0.114232	0.00797985	0.750917	0.986974	-0.361997	-0.419851	-0.122752	-0.21193	-0.722486	-0.185923	0.0999988	-0.0422679	0.820274	0.0521339	-0.303798	-0.767588	0.399059	0.0999999	-0.036774	-0.176855	-0.130139	0.333398	0.0457075	-0.497891	0.328882	2.32532	1.46381	0.0656517	0.0997237	-0.762348	-0.717015	-0.388041	2.15969	1.32961	0.0205341	-0.0811922
2.75833	-0.0709614	0.104501	0.0164742	0.751522	0.986154	-0.361898	-0.410271	-0.105447	-0.182452	-0.836001	-0.178021	0.0999988	-0.0422679	0.784323	0.0531943	-0.304577	-0.686672	0.396358	0.0999999	-0.036774	-0.188934	-0.124605	0.328525	0.021006	-0.494807	0.335912	2.3126	1.45338	0.0656517	0.0997237	-0.747203	-0.724568	-0.402711	2.17855	1.32641	0.0205341	-0.0811922
2.76667	-0.0590078	0.0950443	0.0259094	0.752001	0.984906	-0.361957	-0.400465	-0.0882637	-0.158262	-0.956145	-0.167753	0.0999988	-0.0422679	0.745855	0.0543264	-0.302719	-0.620429	0.38666	0.0999999	-0.036774	-0.205148	-0.11867	0.319276	-0.00548862	-0.49029	0.337283	2.2935	1.43833	0.0656517	0.0997237	-0.730742	-0.730689	-0.418359	2.1989	1.32432	0.0205341	-0.0811922
2.775	-0.0439579	0.0866092	0.0363579	0.752363	0.983197	-0.362217	-0.390957	-0.0725974	-0.141579	-1.08024	-0.156997	0.0999988	-0.0422679	0.706303	0.0560038	-0.297698	-0.570939	0.369366	0.0999999	-0.036774	-0.224744	-0.112973	0.305631	-0.0332529	-0.484631	0.333578	2.26838	1.42019	0.0656517	0.0997237	-0.713045	-0.735815	-0.434847	2.22081	1.32327	0.0205341	-0.0811922
2.78333	-0.026745	0.0798248	0.047825	0.752597	0.980976	-0.362707	-0.381549	-0.0598231	-0.133398	-1.20608	-0.14638	0.0999988	-0.0422679	0.667235	0.0586774	-0.289105	-0.539662	0.34473	0.0999999	-0.036774	-0.246666	-0.108061	0.287763	-0.0618111	-0.478047	0.325286	2.23767	1.40097	0.0656517	0.0997237	-0.69385	-0.740332	-0.451724	2.24406	1.32343	0.0205341	-0.0811922
2.79167	-0.00859498	0.0751728	0.0602546	0.752672	0.978192	-0.363456	-0.371321	-0.0512122	-0.13358	-1.332	-0.135614	0.0999988	-0.0422679	0.630227	0.0627507	-0.276762	-0.527335	0.314342	0.0999999	-0.036774	-0.269669	-0.104353	0.26598	-0.0907363	-0.470655	0.312774	2.20185	1.38286	0.0656517	0.0997237	-0.672566	-0.74448	-0.468231	2.26818	1.32516	0.0205341	-0.0811922
2.8	0.00912217	0.0729626	0.0735331	0.752533	0.97481	-0.364482	-0.35875	-0.0478161	-0.14099	-1.4568	-0.124008	0.0999988	-0.0422679	0.596682	0.0685096	-0.260883	-0.533878	0.281482	0.0999999	-0.036774	-0.292479	-0.102129	0.240677	-0.119643	-0.462481	0.296329	2.1614	1.36783	0.0656517	0.0997237	-0.64835	-0.748297	-0.483361	2.29247	1.329	0.0205341	-0.0811922
2.80833	0.0250701	0.0733217	0.0874909	0.752104	0.97086	-0.365783	-0.341919	-0.0503716	-0.153771	-1.5796	-0.110871	0.0999988	-0.0422679	0.567607	0.0760617	-0.242111	-0.558203	0.250997	0.0999999	-0.036774	-0.313943	-0.101533	0.212294	-0.148182	-0.45349	0.276219	2.11684	1.3574	0.0656517	0.0997237	-0.620241	-0.75161	-0.495952	2.3161	1.33549	0.0205341	-0.0811922
2.81667	0.0381278	0.0761965	0.101895	0.751294	0.966507	-0.367328	-0.318789	-0.0592159	-0.169632	-1.6996	-0.0957115	0.0999988	-0.0422679	0.543356	0.0852916	-0.221468	-0.597977	0.228546	0.0999999	-0.036774	-0.33316	-0.102577	0.181295	-0.176052	-0.443636	0.252762	2.06876	1.35243	0.0656517	0.0997237	-0.587339	-0.754071	-0.504825	2.33818	1.3452	0.0205341	-0.0811922
2.825	0.0475565	0.0813528	0.116437	0.750025	0.962067	-0.369046	-0.287523	-0.074201	-0.18613	-1.81588	-0.0782553	0.0999988	-0.0422679	0.523399	0.0958476	-0.200193	-0.649436	0.219222	0.0999999	-0.036774	-0.349563	-0.105155	0.148171	-0.203014	-0.432918	0.226398	2.01791	1.35314	0.0656517	0.0997237	-0.549007	-0.755217	-0.508947	2.35787	1.35856	0.0205341	-0.0811922
2.83333	0.0531233	0.0883877	0.13072	0.748278	0.957891	-0.370842	-0.246801	-0.0946138	-0.200905	-1.92716	-0.058374	0.0999988	-0.0422679	0.506198	0.10716	-0.179429	-0.707439	0.226085	0.0999999	-0.036774	-0.362947	-0.109022	0.113459	-0.228912	-0.421451	0.197735	1.96527	1.35905	0.0656517	0.0997237	-0.50507	-0.754547	-0.507598	2.37441	1.37594	0.0205341	-0.0811922
2.84167	0.0551229	0.0967153	0.144255	0.746104	0.954227	-0.372623	-0.196082	-0.119137	-0.211909	-2.03173	-0.0360145	0.0999988	-0.0422679	0.489317	0.118423	-0.160101	-0.765962	0.249351	0.0999999	-0.036774	-0.373448	-0.11376	0.0777692	-0.2537	-0.409522	0.167571	1.91207	1.36892	0.0656517	0.0997237	-0.455953	-0.751578	-0.500507	2.38722	1.39753	0.0205341	-0.0811922
2.85	0.0543365	0.105547	0.156478	0.743612	0.95122	-0.374319	-0.135746	-0.145885	-0.217607	-2.12741	-0.0112191	0.0999988	-0.0422679	0.469779	0.128584	-0.142905	-0.818911	0.286479	0.0999999	-0.036774	-0.381451	-0.118747	0.0418056	-0.277459	-0.397635	0.136856	1.85988	1.38076	0.0656517	0.0997237	-0.402722	-0.745903	-0.487927	2.39592	1.42323	0.0205341	-0.0811922
2.85833	0.0518682	0.113913	0.16681	0.740952	0.948975	-0.37588	-0.0670593	-0.17255	-0.217173	-2.21175	0.0158082	0.0999988	-0.0422679	0.444593	0.136391	-0.128311	-0.860992	0.332996	0.0999999	-0.036774	-0.387457	-0.12314	0.00634567	-0.300409	-0.386509	0.106595	1.81055	1.39197	0.0656517	0.0997237	-0.347021	-0.737229	-0.470619	2.40039	1.45251	0.0205341	-0.0811922
2.86667	0.0489212	0.120726	0.17475	0.73831	0.947607	-0.377264	0.00802741	-0.196673	-0.210622	-2.28229	0.0445909	0.0999988	-0.0422679	0.411332	0.14052	-0.116629	-0.888382	0.383652	0.0999999	-0.036774	-0.391896	-0.125929	-0.027828	-0.322907	-0.377026	0.0777081	1.76608	1.39967	0.0656517	0.0997237	-0.290903	-0.72541	-0.449745	2.40077	1.48433	0.0205341	-0.0811922
2.875	0.0465069	0.124875	0.179993	0.7359	0.947215	-0.378443	0.0871982	-0.215992	-0.198831	-2.33682	0.0743296	0.0999988	-0.0422679	0.368601	0.139766	-0.108109	-0.899068	0.433416	0.0999999	-0.036774	-0.394974	-0.126048	-0.0600398	-0.345414	-0.370126	0.0508732	1.72842	1.40124	0.0656517	0.0997237	-0.236597	-0.710472	-0.426681	2.39745	1.5172	0.0205341	-0.0811922
2.88333	0.0452107	0.125393	0.182517	0.733936	0.947835	-0.379425	0.168118	-0.228774	-0.1834	-2.37367	0.103895	0.0999988	-0.0422679	0.316281	0.133254	-0.102981	-0.892791	0.477969	0.0999999	-0.036774	-0.39657	-0.122517	-0.0898369	-0.368445	-0.366682	0.0264201	1.69917	1.3949	0.0656517	0.0997237	-0.186263	-0.692633	-0.402796	2.39101	1.54938	0.0205341	-0.0811922
2.89167	0.0450801	0.121601	0.182615	0.732598	0.94942	-0.380264	0.248717	-0.234088	-0.166392	-2.39189	0.132029	0.0999988	-0.0422679	0.255491	0.120615	-0.101494	-0.870728	0.513767	0.0999999	-0.036774	-0.396232	-0.114612	-0.11706	-0.392507	-0.367367	0.00428575	1.67932	1.38014	0.0656517	0.0997237	-0.141762	-0.672313	-0.379229	2.38209	1.57916	0.0205341	-0.0811922
2.9	0.0456708	0.11322	0.180827	0.732	0.951856	-0.381038	0.327328	-0.231897	-0.149958	-2.39128	0.157546	0.0999988	-0.0422679	0.188299	0.102083	-0.103884	-0.835038	0.537869	0.0999999	-0.036774	-0.393302	-0.101995	-0.141827	-0.418027	-0.372545	-0.0159529	1.66908	1.35781	0.0656517	0.0997237	-0.104476	-0.65014	-0.356721	2.37134	1.60511	0.0205341	-0.0811922
2.90833	0.0462352	0.100428	0.177806	0.73218	0.955003	-0.38181	0.402682	-0.222981	-0.135976	-2.37234	0.17956	0.0999988	-0.0422679	0.117292	0.0784537	-0.110391	-0.788455	0.547795	0.0999999	-0.036774	-0.387127	-0.0847996	-0.164438	-0.445309	-0.382204	-0.0349876	1.66786	1.32996	0.0656517	0.0997237	-0.0751953	-0.62693	-0.335524	2.3593	1.62629	0.0205341	-0.0811922
2.91667	0.045979	0.0838479	0.174153	0.733105	0.958714	-0.382605	0.473797	-0.208725	-0.12576	-2.33611	0.197608	0.0999988	-0.0422679	0.0451284	0.0509726	-0.121224	-0.733987	0.541502	0.0999999	-0.036774	-0.377303	-0.063642	-0.185232	-0.474487	-0.395931	-0.0536591	1.67437	1.29942	0.0656517	0.0997237	-0.0540693	-0.60366	-0.31541	2.34636	1.64228	0.0205341	-0.0811922
